<svg width="54" height="54" viewBox="0 0 54 54" fill="none" xmlns="http://www.w3.org/2000/svg">
<path d="M25.1047 30.4438C25.5918 30.5385 25.6794 30.3001 25.7589 30.131C25.8373 29.9608 26.0706 29.701 26.4109 29.5401C26.7523 29.3781 27.2097 29.105 27.388 28.942C27.5684 28.779 27.7609 28.5762 28.1705 28.5599C28.5811 28.5426 28.7849 28.3429 28.9133 28.079C29.0447 27.8151 28.953 27.2608 29.0427 27.0642C29.1323 26.8696 29.3595 26.5242 29.493 26.2196C29.6285 25.9159 29.5113 25.9414 29.3106 26.029C29.1099 26.1146 28.9347 26.1849 28.8572 26.4549C28.7778 26.7259 28.7054 26.7881 28.4527 26.9725C28.198 27.1559 28.0136 27.2873 27.7416 27.375C27.4665 27.4616 26.9336 27.6287 26.633 27.7754C26.3529 27.9119 26.0564 28.0749 25.7324 28.2685L23.6641 30.3368C24.0502 30.2971 24.6697 30.3592 25.1047 30.4438Z" fill="#3FA9F5"/>
<path d="M47.5585 9.50635C47.4587 9.58786 47.3853 9.66223 47.369 9.71522C47.316 9.90269 47.2875 10.7178 47.097 11.0673C46.9105 11.4167 46.8463 12.0882 46.8443 12.2135C46.8392 12.3378 46.8239 12.5579 46.6976 12.7637C46.5743 12.9685 46.3216 13.267 46.4133 13.4188C46.504 13.5706 46.8677 13.8426 46.6762 14.0383C46.4836 14.2339 46.017 14.5171 46.1514 14.8065C46.291 15.0969 46.5091 15.6277 46.4989 15.8447C46.4887 16.0617 46.3573 16.2727 46.4928 16.4173C46.6293 16.562 46.7434 16.8585 46.5447 17.1743C46.346 17.4912 45.373 18.8606 44.775 19.3608C44.1789 19.8621 43.6277 20.4256 43.4576 20.7496C43.2874 21.0736 43.268 21.3211 43.1825 21.4342C43.0979 21.5473 42.8513 21.7216 42.674 21.8917C42.4988 22.0619 42.6363 22.1648 42.728 22.3156C42.8197 22.4674 42.7433 22.7068 42.5987 22.8535C42.453 23.0002 42.0627 23.2101 42.3052 23.368C42.5467 23.527 42.6078 23.798 42.4927 23.9213C42.3786 24.0446 42.1259 24.3777 42.1096 24.501C42.0913 24.6243 41.5288 24.6284 41.2609 24.446C40.995 24.2636 40.5548 23.9733 40.6496 23.8826C40.7443 23.7919 40.995 23.6594 41.2201 23.3782C41.4473 23.097 41.4198 22.6966 41.5482 22.6518C41.6817 22.608 41.7153 22.3624 41.4871 22.2055C41.2568 22.0486 41.1753 21.8917 41.3974 21.6309C41.6216 21.37 41.8803 20.8647 41.4932 20.6446C41.106 20.4245 40.674 20.5315 40.1748 20.6915C39.6735 20.8525 39.7591 20.9686 39.1162 21.5667C38.4702 22.1648 38.7371 22.4939 38.3439 22.9197C37.9526 23.3446 37.9862 23.5576 37.594 23.9824C37.2037 24.4083 36.6087 24.7843 36.4182 25.1123C36.2267 25.4404 36.4457 25.5117 36.8563 25.256C37.2679 25.0013 37.0805 24.9952 37.6928 24.933C38.3072 24.8719 38.3113 24.9768 38.7331 24.7843C39.1579 24.5927 39.3851 24.4572 39.5665 24.6488C39.7489 24.8413 40.0657 25.2601 40.2064 25.5922C40.349 25.9244 40.3877 26.388 40.2716 26.9351C40.1534 27.4812 40.2237 27.741 39.9068 28.0732C39.5889 28.4033 39.1498 28.5724 38.727 28.765C38.3041 28.9565 38.4417 28.871 38.0372 29.0859C37.6327 29.3019 37.5491 29.144 37.3596 28.8679C37.1681 28.5918 36.5894 28.6988 36.3306 28.9137C36.0738 29.1287 35.1945 30.0702 34.8991 30.2373C34.6056 30.4054 33.7987 30.6489 33.5328 30.924C33.2658 31.2001 33.2128 31.4436 33.3952 31.6137C33.5807 31.7859 33.7671 32.3952 33.2984 32.6214C32.8297 32.8476 32.5557 33.0198 32.4283 33.3346C32.303 33.6515 31.7161 33.9877 31.3605 34.1253C31.008 34.2648 30.2225 34.5308 29.9402 34.9098C29.66 35.2878 29.4461 35.6118 29.115 35.7534C28.7838 35.8971 28.1888 36.273 27.8291 36.3067C27.4695 36.3403 27.1832 35.8431 26.3956 35.9847C25.605 36.1263 24.7858 36.325 24.5993 36.4666C24.4108 36.6072 24.206 36.8905 23.9799 37.028C23.7516 37.1625 23.556 37.3867 22.9151 37.4834C22.2783 37.5843 22.0858 37.621 21.6772 37.8553C21.2707 38.0907 20.9141 38.3963 20.5636 38.5359C20.209 38.6745 19.8249 38.6001 19.6537 39.077C19.4846 39.5538 19.4021 40.1468 19.0801 40.3719C18.7571 40.5991 18.6899 40.7764 18.4117 40.8213C18.1366 40.8681 18.0735 39.8167 17.3919 39.9308C16.7072 40.0449 16.482 40.16 16.267 40.0683C16.05 39.9756 15.9522 39.9196 15.6333 39.9807C15.3123 40.0408 14.6032 39.9002 14.3791 40.3077C14.157 40.7143 13.8798 40.7591 13.6485 41.3939C13.4122 42.0286 13.3785 42.1285 13.7127 42.2772C14.0469 42.428 14.0276 42.5717 13.8421 42.7133C13.6536 42.8539 13.1951 43.1453 13.0668 43.4815C12.9374 43.8177 12.9088 44.0225 12.7265 44.2885C12.5441 44.5544 12.159 44.9191 12.3332 45.0261C12.5074 45.1331 12.7 45.3888 12.5013 45.4673C12.3047 45.5437 11.889 45.6741 11.5751 46.152C11.2573 46.6298 10.5705 47.2432 10.27 47.5977C10.164 47.7231 10.0591 47.829 9.94189 47.9248C14.591 51.7221 20.5279 54.0003 26.9998 54.0003C41.9119 54.0003 53.9998 41.9125 53.9998 27.0003C53.9998 20.3247 51.5718 14.2196 47.5585 9.50635Z" fill="#3FA9F5"/>
<path d="M24.5885 28.6302C24.2889 28.5884 24.0281 28.8228 23.9099 28.9318C23.7897 29.0398 23.7163 28.9675 23.4779 28.8931C23.2374 28.8187 22.9919 29.0775 22.9247 29.2752C22.8554 29.4738 22.5039 29.4463 22.3724 29.3444C22.241 29.2426 21.8885 29.3821 21.6806 29.5217C21.4738 29.6593 21.2873 29.862 21.0693 30.0831C20.8513 30.3022 21.3281 30.5151 21.486 30.6822C21.6368 30.8412 21.8793 30.7637 22.026 30.7006C22.1737 30.6374 22.4753 30.5549 22.6669 30.4835C22.8574 30.4132 23.16 30.4275 23.5176 30.3511C23.5564 30.3429 23.6154 30.3419 23.6623 30.3378L25.7306 28.2695C25.7072 28.2838 25.6858 28.295 25.6624 28.3093C25.3098 28.5202 24.8839 28.6699 24.5885 28.6302Z" fill="#70CF29"/>
<path d="M6.18351 43.1307C7.2034 42.7986 8.10408 41.7012 8.46374 41.1113C8.82136 40.5224 9.73324 39.3426 10.3099 38.5876C10.8866 37.8336 12.3772 36.9003 13.6294 36.4877C14.8795 36.0771 16.2876 35.5483 17.008 34.7587C17.7263 33.9691 17.6763 33.7398 18.1491 33.5269C18.6218 33.3149 19.2403 33.0674 19.388 32.8086C19.5337 32.5518 19.5409 31.6909 20.2673 31.4575C20.9938 31.2242 20.9673 31.214 21.0315 30.9104C21.0946 30.6068 20.6688 30.3806 20.4405 30.349C20.2164 30.3185 19.5704 30.4794 19.6601 30.2624C19.7528 30.0464 20.1858 29.4799 20.7431 29.2242C21.2994 28.9674 21.9648 28.5171 22.1298 28.2267C22.2949 27.9374 22.7554 27.4595 23.3117 27.2028C23.87 26.947 24.6362 26.5099 25.0122 26.354C25.3882 26.1971 26.3398 25.8069 26.5425 25.6897C26.7473 25.5715 27.5074 25.3433 27.5441 24.9317C27.5777 24.5201 27.2517 24.4752 27.6286 24.0066C28.0046 23.5369 28.2298 23.4217 28.564 22.8216C28.8951 22.2225 28.9939 22.1094 29.4657 21.8629C29.9374 21.6163 31.0999 20.9011 31.2456 20.9C31.3913 20.899 31.7286 20.8837 31.9935 20.4609C32.2584 20.0381 32.5865 20.0839 32.8473 20.0157C33.1061 19.9474 33.4902 19.2709 33.8183 19.169C34.1433 19.0681 34.2625 18.6677 34.3022 18.3824C34.342 18.0971 34.4938 17.4502 34.8168 17.3697C35.1397 17.2892 35.3557 16.7767 35.4362 16.4975C35.5157 16.2163 35.6206 15.4593 36.0119 15.3482C36.4021 15.2341 36.2666 15.2993 36.4948 15.0181C36.72 14.7359 36.9115 14.2621 37.262 13.9778C37.6166 13.6936 37.7817 13.5489 37.8774 13.1454C37.9763 12.742 38.2493 11.5091 38.7628 10.8092C39.2763 10.1092 39.7858 9.74242 40.3533 9.25743C40.9198 8.77245 40.9361 8.1917 41.257 7.84019C41.5769 7.48766 41.3569 7.26962 41.5555 7.04649C41.7502 6.82336 41.7766 6.63996 41.8133 6.51974C41.851 6.39849 41.6768 6.16721 41.9193 5.90842C42.1618 5.65064 42.3696 5.65879 42.5887 5.43872C42.7354 5.292 42.7038 5.1677 42.7028 5.04543C38.2789 1.87268 32.8605 0 27 0C12.0878 0 0 12.0878 0 27C0 33.1692 2.0734 38.8515 5.55487 43.3977C5.75762 43.2958 5.96751 43.2 6.18351 43.1307Z" fill="#70CF29"/>
</svg>
